<svg width="35" height="35" viewBox="0 0 35 35" fill="none" xmlns="http://www.w3.org/2000/svg">
<g filter="url(#filter0_d_2_296)">
<path d="M30.0741 16.1534C30.0744 15.2697 29.8306 14.4031 29.3696 13.6491C28.9087 12.895 28.2485 12.2829 27.4618 11.8801C26.6752 11.4773 25.7925 11.2995 24.9112 11.3662C24.0299 11.433 23.1842 11.7417 22.4672 12.2585C21.7502 12.7752 21.1897 13.4798 20.8477 14.2946C20.5056 15.1095 20.3952 16.003 20.5286 16.8766C20.662 17.7502 21.034 18.57 21.6037 19.2457C22.1733 19.9214 22.9185 20.4267 23.757 20.7059C23.5942 21.4557 23.1797 22.1271 22.5824 22.6087C21.9851 23.0903 21.2409 23.3529 20.4736 23.353H17.5935C16.7023 23.353 15.8476 22.999 15.2175 22.3689C14.5873 21.7388 14.2333 20.8843 14.2333 19.9932V15.5415C18.0411 14.8479 20.9537 11.4509 20.9537 7.4144V2.7143C20.9537 2.39915 20.8916 2.08708 20.771 1.79592C20.6503 1.50476 20.4735 1.2402 20.2507 1.01735C20.0278 0.794505 19.7632 0.617734 19.472 0.497131C19.1808 0.376527 18.8687 0.314453 18.5535 0.314453H16.6334C16.2515 0.314453 15.8852 0.466157 15.6151 0.736192C15.3451 1.00623 15.1934 1.37247 15.1934 1.75436C15.1934 2.13625 15.3451 2.50249 15.6151 2.77253C15.8852 3.04256 16.2515 3.19427 16.6334 3.19427H18.0735V7.4144C18.0735 10.3422 15.737 12.7565 12.864 12.7937C12.1647 12.803 11.4704 12.6734 10.8216 12.4123C10.1728 12.1511 9.58231 11.7637 9.08447 11.2725C8.58662 10.7813 8.19134 10.1961 7.92156 9.55092C7.65179 8.9057 7.5129 8.21332 7.51296 7.51399V3.19427H8.95304C9.33497 3.19427 9.70126 3.04256 9.97132 2.77253C10.2414 2.50249 10.3931 2.13625 10.3931 1.75436C10.3931 1.37247 10.2414 1.00623 9.97132 0.736192C9.70126 0.466157 9.33497 0.314453 8.95304 0.314453H7.03294C6.39638 0.314453 5.7859 0.567293 5.33579 1.01735C4.88568 1.46741 4.63281 2.07782 4.63281 2.7143V7.51399C4.63289 9.42823 5.30607 11.2815 6.53458 12.7496C7.7631 14.2178 9.46875 15.2073 11.3532 15.5451V19.9932C11.3551 21.6475 12.0131 23.2334 13.183 24.4032C14.3529 25.5729 15.939 26.2309 17.5935 26.2328H20.4736C21.9975 26.231 23.4682 25.6723 24.6089 24.6619C25.7496 23.6515 26.4816 22.2591 26.6671 20.7467C27.6519 20.4465 28.5143 19.8382 29.1276 19.0114C29.7409 18.1846 30.0727 17.1828 30.0741 16.1534ZM25.2739 18.0733C24.8941 18.0733 24.5229 17.9607 24.2071 17.7498C23.8914 17.5388 23.6453 17.239 23.4999 16.8881C23.3546 16.5373 23.3166 16.1513 23.3907 15.7789C23.4648 15.4065 23.6476 15.0644 23.9162 14.7959C24.1847 14.5274 24.5268 14.3445 24.8993 14.2705C25.2717 14.1964 25.6578 14.2344 26.0087 14.3797C26.3595 14.525 26.6594 14.7711 26.8704 15.0868C27.0814 15.4025 27.194 15.7737 27.194 16.1534C27.194 16.6626 26.9917 17.1509 26.6316 17.511C26.2715 17.871 25.7831 18.0733 25.2739 18.0733Z" fill="url(#paint0_linear_2_296)"/>
</g>
<defs>
<filter id="filter0_d_2_296" x="0.632812" y="0.314453" width="33.4413" height="33.9185" filterUnits="userSpaceOnUse" color-interpolation-filters="sRGB">
<feFlood flood-opacity="0" result="BackgroundImageFix"/>
<feColorMatrix in="SourceAlpha" type="matrix" values="0 0 0 0 0 0 0 0 0 0 0 0 0 0 0 0 0 0 127 0" result="hardAlpha"/>
<feOffset dy="4"/>
<feGaussianBlur stdDeviation="2"/>
<feComposite in2="hardAlpha" operator="out"/>
<feColorMatrix type="matrix" values="0 0 0 0 0 0 0 0 0 0 0 0 0 0 0 0 0 0 0.25 0"/>
<feBlend mode="normal" in2="BackgroundImageFix" result="effect1_dropShadow_2_296"/>
<feBlend mode="normal" in="SourceGraphic" in2="effect1_dropShadow_2_296" result="shape"/>
</filter>
<linearGradient id="paint0_linear_2_296" x1="2.56571" y1="4.21015" x2="22.7597" y2="26.2328" gradientUnits="userSpaceOnUse">
<stop stop-color="#D86D6B"/>
<stop offset="0.228785" stop-color="#F5854E"/>
<stop offset="0.408008" stop-color="#F0C971"/>
<stop offset="0.634525" stop-color="#3CC6C1"/>
<stop offset="0.790545" stop-color="#419E80"/>
<stop offset="1" stop-color="#4188C1"/>
</linearGradient>
</defs>
</svg>
